# xmcd
#
# Track frame offsets: 
#        150
#        24987
#        43907
#        68835
#        89945
#        104220
#        124397
#        140412
#        157655
#        170787
#
# Disc length: 2468 seconds
#
# Revision: 3
# Processed by: cddbd v1.5.2PL0 Copyright (c) Steve Scherf et al.
# Submitted via: ExactAudioCopyFreeDBPlugin 1.0
#
DISCID=9409a20a
DTITLE=Various Artist - Blues Cruise (Rounder EasyDisc)
DYEAR=1997
DGENRE=Blues
TTITLE0=Phillip Walker and Otis Grand - Bluesmobile
TTITLE1=Smokin' Joe Kubek Band - Step On It (ft Bnois King)
TTITLE2=Johnny Adams - Body and Fender Man
TTITLE3=Joe "Guitar" Hughes - U Turn
TTITLE4=Jumpin' Johnny Sansone - Destination Unknown
TTITLE5=Roomful of Blues - Let's Ride
TTITLE6=Monster Mike Welch - Cruise Control
TTITLE7=Charlie Sayles - Automobile
TTITLE8=Kenny "Blue" Ray - '56 Eldorado
TTITLE9=Pat Boyack and The Prowlers - Gas Station Man
EXTD=
EXTT0=
EXTT1=
EXTT2=
EXTT3=
EXTT4=
EXTT5=
EXTT6=
EXTT7=
EXTT8=
EXTT9=
PLAYORDER=
